<svg width="397.8400024414062px" height="369.239990234375px" xmlns="http://www.w3.org/2000/svg" viewBox="51.079998779296886 -109.6199951171875 397.8400024414062 369.239990234375" style="background: rgba(0, 0, 0, 0) none repeat scroll 0% 0%;" preserveAspectRatio="xMidYMid"><defs><filter id="editing-golden" x="-100%" y="-100%" width="300%" height="300%"><feFlood flood-color="#806527" result="flood"></feFlood><feFlood flood-color="#fff694" result="flood-light"></feFlood><feComposite operator="in" in="flood" in2="SourceAlpha" result="flood-comp"></feComposite><feGaussianBlur in="flood-comp" stdDeviation="3" result="blur"></feGaussianBlur><feOffset in="blur" dy="3" result="offset-blur"></feOffset><feComponentTransfer in="offset-blur" result="comp-blur"><feFuncA type="linear" slope="0.7" intercept="-0.1"></feFuncA></feComponentTransfer><feSpecularLighting surfaceScale="200" specularConstant="20" specularExponent="1" lighting-color="#fff" in="blur" result="specular"><fePointLight x="-250" y="-250" z="3500"></fePointLight></feSpecularLighting><feComponentTransfer in="specular" result="inspecular"><feFuncA type="linear" slope="-1" intercept="1"></feFuncA></feComponentTransfer><feComposite operator="in" in="flood-light" in2="inspecular" result="inspecular2"></feComposite><feComposite operator="in" in="inspecular2" in2="SourceAlpha" result="light"></feComposite><feMerge><feMergeNode in="comp-blur"></feMergeNode><feMergeNode in="SourceGraphic"></feMergeNode><feMergeNode in="light"></feMergeNode></feMerge></filter></defs><g filter="url(#editing-golden)"><g transform="translate(116.1100082397461, 148.43999481201172)"><path d="M200.20-112.30L200.20-112.30L200.20-112.30Q208.79-122.07 217.33-128.66L217.33-128.66L217.33-128.66Q225.88-135.25 233.79-139.26L233.79-139.26L233.79-139.26Q241.70-143.26 248.78-144.97L248.78-144.97L248.78-144.97Q255.86-146.68 261.52-146.68L261.52-146.68L261.52-146.68Q263.48-146.68 265.67-146.48L265.67-146.48L265.67-146.48Q267.87-146.29 269.73-145.51L269.73-145.51L269.73-145.51Q271.58-144.73 272.80-143.16L272.80-143.16L272.80-143.16Q274.02-141.60 274.02-138.87L274.02-138.87L274.02-138.87Q274.02-131.54 269.87-124.41L269.87-124.41L269.87-124.41Q265.72-117.29 258.98-110.84L258.98-110.84L258.98-110.84Q252.25-104.39 243.65-98.68L243.65-98.68L243.65-98.68Q235.06-92.97 226.32-88.57L226.32-88.57L226.32-88.57Q217.58-84.18 209.38-81.15L209.38-81.15L209.38-81.15Q201.17-78.13 195.12-76.95L195.12-76.95L195.12-76.95Q189.84-75.78 183.98-75.20L183.98-75.20L183.98-75.20Q182.03-72.95 180.32-71.09L180.32-71.09L180.32-71.09Q178.61-69.24 177.15-67.58L177.15-67.58L177.15-67.58Q169.82-59.47 162.84-51.51L162.84-51.51L162.84-51.51Q155.86-43.55 148.97-36.28L148.97-36.28L148.97-36.28Q142.09-29.00 135.11-22.75L135.11-22.75L135.11-22.75Q128.13-16.50 120.70-11.72L120.70-11.72L120.70-11.72Q126.37-10.35 132.08-9.03L132.08-9.03L132.08-9.03Q137.79-7.71 143.16-6.69L143.16-6.69L143.16-6.69Q148.54-5.66 153.42-5.08L153.42-5.08L153.42-5.08Q158.30-4.49 162.30-4.49L162.30-4.49L162.30-4.49Q163.87-4.49 166.80-4.83L166.80-4.83L166.80-4.83Q169.73-5.18 174.71-6.49L174.71-6.49L174.71-6.49Q179.69-7.81 187.06-10.50L187.06-10.50L187.06-10.50Q194.43-13.18 204.88-17.77L204.88-17.77L204.88-17.77Q205.08-17.19 205.37-16.80L205.37-16.80L205.37-16.80Q205.57-16.41 205.71-16.02L205.71-16.02L205.71-16.02Q205.86-15.63 205.86-15.43L205.86-15.43L205.86-15.43Q200.68-13.09 195.07-10.35L195.07-10.35L195.07-10.35Q189.45-7.62 183.50-5.27L183.50-5.27L183.50-5.27Q177.54-2.93 171.34-1.37L171.34-1.37L171.34-1.37Q165.14 0.20 158.79 0.20L158.79 0.20L158.79 0.20Q154.20 0.20 148.88-0.59L148.88-0.59L148.88-0.59Q143.55-1.37 137.84-2.54L137.84-2.54L137.84-2.54Q132.13-3.71 126.22-5.18L126.22-5.18L126.22-5.18Q120.31-6.64 114.45-8.01L114.45-8.01L114.45-8.01Q107.13-4.00 99.32-1.90L99.32-1.90L99.32-1.90Q91.50 0.20 82.81 0.20L82.81 0.20L82.81 0.20Q78.91 0.20 75.54-0.63L75.54-0.63L75.54-0.63Q72.17-1.46 69.68-2.78L69.68-2.78L69.68-2.78Q67.19-4.10 65.72-5.86L65.72-5.86L65.72-5.86Q64.26-7.62 64.26-9.57L64.26-9.57L64.26-9.57Q64.26-12.60 65.72-14.50L65.72-14.50L65.72-14.50Q67.19-16.41 69.53-17.43L69.53-17.43L69.53-17.43Q71.88-18.46 74.85-18.80L74.85-18.80L74.85-18.80Q77.83-19.14 80.86-19.14L80.86-19.14L80.86-19.14Q86.04-19.14 93.41-17.77L93.41-17.77L93.41-17.77Q100.78-16.41 109.38-14.45L109.38-14.45L109.38-14.45Q114.75-18.46 120.12-23.68L120.12-23.68L120.12-23.68Q125.49-28.91 130.76-34.67L130.76-34.67L130.76-34.67Q136.04-40.43 141.06-46.39L141.06-46.39L141.06-46.39Q146.09-52.34 150.98-57.81L150.98-57.81L150.98-57.81Q154.10-61.23 157.86-65.63L157.86-65.63L157.86-65.63Q161.62-70.02 166.02-75L166.02-75L166.02-75Q161.33-75.39 155.57-76.42L155.57-76.42L155.57-76.42Q149.80-77.44 144.73-79.49L144.73-79.49L144.73-79.49Q139.65-81.54 136.23-84.62L136.23-84.62L136.23-84.62Q132.81-87.70 132.81-92.19L132.81-92.19L132.81-92.19Q132.81-95.90 134.81-98.78L134.81-98.78L134.81-98.78Q136.82-101.66 140.04-103.81L140.04-103.81L140.04-103.81Q143.26-105.96 147.36-107.47L147.36-107.47L147.36-107.47Q151.46-108.98 155.66-109.96L155.66-109.96L155.66-109.96Q159.86-110.94 163.82-111.47L163.82-111.47L163.82-111.47Q167.77-112.01 170.70-112.30L170.70-112.30L171.29-111.13L171.29-111.13Q168.16-110.94 163.67-109.47L163.67-109.47L163.67-109.47Q159.18-108.01 154.93-105.52L154.93-105.52L154.93-105.52Q150.68-103.03 147.71-99.66L147.71-99.66L147.71-99.66Q144.73-96.29 144.73-92.38L144.73-92.38L144.73-92.38Q144.73-88.67 147.22-86.33L147.22-86.33L147.22-86.33Q149.71-83.98 153.52-82.52L153.52-82.52L153.52-82.52Q157.32-81.05 161.77-80.37L161.77-80.37L161.77-80.37Q166.21-79.69 170.12-79.49L170.12-79.49L170.12-79.49Q177.15-87.60 184.86-96.04L184.86-96.04L184.86-96.04Q192.58-104.49 200.20-112.30ZM215.43-110.94L188.48-80.47L188.48-80.47Q191.02-80.96 193.46-81.40L193.46-81.40L193.46-81.40Q195.90-81.84 198.44-82.62L198.44-82.62L198.44-82.62Q203.13-83.89 209.96-86.77L209.96-86.77L209.96-86.77Q216.80-89.65 224.32-93.70L224.32-93.70L224.32-93.70Q231.84-97.75 239.26-102.78L239.26-102.78L239.26-102.78Q246.68-107.81 252.59-113.23L252.59-113.23L252.59-113.23Q258.50-118.65 262.16-124.27L262.16-124.27L262.16-124.27Q265.82-129.88 265.82-135.16L265.82-135.16L265.82-135.16Q265.82-136.43 265.14-137.21L265.14-137.21L265.14-137.21Q264.45-137.99 263.38-138.43L263.38-138.43L263.38-138.43Q262.30-138.87 261.04-138.96L261.04-138.96L261.04-138.96Q259.77-139.06 258.59-139.06L258.59-139.06L258.59-139.06Q254.20-139.06 249.76-137.55L249.76-137.55L249.76-137.55Q245.31-136.04 240.92-133.40L240.92-133.40L240.92-133.40Q236.52-130.76 232.28-127.34L232.28-127.34L232.28-127.34Q228.03-123.93 224.02-120.12L224.02-120.12L224.02-120.12Q221.68-117.58 219.43-115.23L219.43-115.23L219.43-115.23Q217.19-112.89 215.43-110.94L215.43-110.94ZM85.74-4.69L85.74-4.69L85.74-4.69Q90.14-4.69 94.53-6.20L94.53-6.20L94.53-6.20Q98.93-7.71 103.52-10.35L103.52-10.35L103.52-10.35Q97.66-11.72 92.09-12.50L92.09-12.50L92.09-12.50Q86.52-13.28 81.84-13.28L81.84-13.28L81.84-13.28Q80.66-13.28 79.30-13.18L79.30-13.18L79.30-13.18Q77.93-13.09 76.76-12.74L76.76-12.74L76.76-12.74Q75.59-12.40 74.80-11.72L74.80-11.72L74.80-11.72Q74.02-11.04 74.02-9.96L74.02-9.96L74.02-9.96Q74.02-8.89 75.10-7.96L75.10-7.96L75.10-7.96Q76.17-7.03 77.83-6.30L77.83-6.30L77.83-6.30Q79.49-5.57 81.59-5.13L81.59-5.13L81.59-5.13Q83.69-4.69 85.74-4.69Z" fill="#f7c61d"></path></g></g><style>text {
  font-size: 64px;
  font-family: Arial Black;
  dominant-baseline: central;
  text-anchor: middle;
}</style></svg>