<?xml version="1.0" standalone="no"?>
<!DOCTYPE svg PUBLIC "-//W3C//DTD SVG 20010904//EN"
 "http://www.w3.org/TR/2001/REC-SVG-20010904/DTD/svg10.dtd">
<svg version="1.0" xmlns="http://www.w3.org/2000/svg"
 width="400.000000pt" height="400.000000pt" viewBox="0 0 400.000000 400.000000"
 preserveAspectRatio="xMidYMid meet">
<metadata>
Created by potrace 1.11, written by Peter Selinger 2001-2013
</metadata>
<g transform="translate(0.000000,400.000000) scale(0.100000,-0.100000)"
fill="#000000" stroke="none">
<path d="M2288 3286 c-82 -30 -80 -29 -143 -80 -201 -166 -328 -374 -392 -643
-19 -81 -36 -157 -39 -168 -2 -14 -33 -35 -96 -67 -205 -104 -344 -214 -429
-339 -44 -65 -98 -168 -108 -207 -7 -26 -12 -27 -88 -34 -150 -12 -215 -40
-290 -121 -158 -174 -98 -509 117 -653 134 -90 283 -100 426 -29 117 57 258
206 359 379 l27 46 37 -30 c304 -250 543 -414 751 -516 225 -111 283 -127 471
-130 215 -4 314 21 418 104 51 41 79 97 82 165 3 59 -13 74 -50 48 -91 -64
-224 -104 -351 -105 -198 -2 -319 29 -540 138 -157 78 -138 67 -375 221 -110
72 -235 152 -278 179 -42 26 -80 52 -83 57 -3 5 11 42 30 82 80 169 201 499
231 627 2 8 13 51 25 95 12 44 24 90 27 102 3 12 46 56 97 97 107 87 258 238
316 316 23 30 58 88 78 129 33 68 37 82 37 156 0 74 -3 86 -29 124 -55 78
-129 96 -238 57z m195 -106 c88 -98 -22 -343 -226 -500 -47 -37 -190 -130
-194 -126 -7 6 59 257 89 339 59 162 138 284 202 313 45 21 96 10 129 -26z
m-818 -1027 c-17 -91 -130 -515 -142 -535 -2 -4 -25 3 -51 16 -40 20 -102 44
-223 88 l-26 9 26 52 c70 134 133 200 306 315 60 39 111 72 112 72 1 0 0 -8
-2 -17z m-610 -465 c-42 -174 9 -398 78 -345 17 12 22 32 32 127 6 60 6 60 24
143 15 67 23 70 98 28 63 -35 193 -131 193 -142 0 -16 -72 -193 -108 -264 -69
-138 -158 -247 -235 -286 -138 -71 -327 49 -370 236 -23 97 -12 265 23 359 35
92 136 162 238 165 29 1 32 -2 27 -21z"/>
</g>
</svg>
