<?xml version="1.0" standalone="no"?>
<!DOCTYPE svg PUBLIC "-//W3C//DTD SVG 20010904//EN"
 "http://www.w3.org/TR/2001/REC-SVG-20010904/DTD/svg10.dtd">
<svg version="1.0" xmlns="http://www.w3.org/2000/svg"
 width="400.000000pt" height="400.000000pt" viewBox="0 0 400.000000 400.000000"
 preserveAspectRatio="xMidYMid meet">
<metadata>
Created by potrace 1.11, written by Peter Selinger 2001-2013
</metadata>
<g transform="translate(0.000000,400.000000) scale(0.100000,-0.100000)"
fill="#000000" stroke="none">
<path d="M2288 3286 c-82 -30 -80 -29 -143 -80 -199 -164 -356 -424 -398 -661
-10 -55 -36 -167 -39 -170 -2 -1 -43 -23 -93 -48 -134 -69 -262 -156 -329
-223 -84 -83 -178 -235 -210 -336 -4 -14 -17 -18 -58 -18 -69 0 -176 -23 -224
-48 -49 -26 -116 -95 -143 -149 -76 -152 -30 -391 100 -520 139 -139 326 -172
496 -88 97 48 221 170 308 302 33 50 65 98 70 107 8 12 28 0 115 -71 279 -226
467 -353 678 -458 226 -112 284 -128 473 -131 111 -2 174 1 220 12 115 27 208
83 249 149 29 47 42 141 23 161 -13 12 -18 12 -41 -5 -92 -64 -224 -104 -352
-105 -198 -2 -319 29 -540 138 -157 78 -138 67 -375 221 -110 72 -235 152
-278 179 -42 26 -80 52 -83 57 -3 5 11 42 30 82 80 169 201 499 231 627 2 8
13 51 25 95 22 82 28 105 29 116 1 4 43 40 94 82 108 88 259 239 317 317 23
30 58 88 78 129 33 68 37 82 37 156 0 74 -3 86 -29 124 -55 78 -130 96 -238
57z m195 -106 c88 -98 -22 -343 -226 -500 -49 -38 -190 -130 -194 -126 -6 6
46 214 79 311 56 169 145 311 212 341 45 21 96 10 129 -26z m-818 -1031 c-2
-11 -6 -28 -9 -37 -3 -9 -7 -28 -10 -42 -9 -55 -113 -436 -123 -452 -2 -4 -25
3 -51 16 -26 12 -81 35 -122 50 -41 15 -87 32 -101 38 l-26 9 26 52 c70 134
135 201 307 315 59 40 109 72 111 72 1 0 0 -9 -2 -21z m-608 -452 c-5 -15 -21
-122 -21 -147 0 -8 3 -40 7 -71 12 -102 49 -159 88 -138 17 9 24 35 34 134 6
56 7 57 24 138 14 66 20 68 93 31 59 -30 198 -132 198 -145 0 -16 -72 -193
-108 -264 -69 -138 -158 -247 -235 -286 -137 -71 -327 50 -370 236 -14 59 -15
171 -2 261 16 122 76 204 175 245 55 22 125 25 117 6z"/>
</g>
</svg>
